<svg id="eB05Q6J4W1G1" xmlns="http://www.w3.org/2000/svg" xmlns:xlink="http://www.w3.org/1999/xlink" viewBox="0 0 300 300" shape-rendering="geometricPrecision" text-rendering="geometricPrecision" project-id="a39bb6189d7047d8bb1ee154b58c4f92" export-id="908f6fe59f5640e884468970aff4f91b" cached="false"><g transform="matrix(0-1 1 0 0.000008 313.500034)"><rect width="217.943652" height="305.131695" rx="0" ry="0" transform="matrix(.711193 0 0 0.838982 86 22)" fill="#fff" stroke-width="0"/><rect width="52.02897" height="55.714222" rx="0" ry="0" transform="matrix(1.249304 0 0 1.166668 95 31.43695)" fill="#d2dbed" stroke-width="0"/><rect width="52.02897" height="55.714222" rx="0" ry="0" transform="matrix(1.249304 0 0 1.166668 94.999993 104.324601)" fill="#d2dbed" stroke-width="0"/><rect width="52.02897" height="55.714222" rx="0" ry="0" transform="matrix(1.249304 0 0 1.166668 94.999985 177.676504)" fill="#d2dbed" stroke-width="0"/><rect width="52.02897" height="55.714222" rx="0" ry="0" transform="matrix(1.249304 0 0 1.166668 166.494891 177.676511)" fill="#d2dbed" stroke-width="0"/><rect width="52.02897" height="55.714222" rx="0" ry="0" transform="matrix(1.249304 0 0 1.166668 166.494891 104.324608)" fill="#d2dbed" stroke-width="0"/><rect width="52.02897" height="55.714222" rx="0" ry="0" transform="matrix(1.249304 0 0 1.166668 166.494902 31.436952)" fill="#d2dbed" stroke-width="0"/></g></svg>
