<svg id="eMELzP0j9TQ1" xmlns="http://www.w3.org/2000/svg" xmlns:xlink="http://www.w3.org/1999/xlink" viewBox="0 0 300 300" shape-rendering="geometricPrecision" text-rendering="geometricPrecision" project-id="6bf5baec15244d84a930283cb6a21611" export-id="6ca18134e23a4e1f8512d9160a8ec303" cached="false"><g transform="translate(-13.500038 0.000012)"><rect width="217.943652" height="305.131695" rx="0" ry="0" transform="matrix(.711193 0 0 0.838982 86 22)" fill="#fff" stroke-width="0"/><rect width="52.02897" height="55.714222" rx="0" ry="0" transform="matrix(1.249304 0 0 1.166668 95 31.43695)" fill="#d2dbed" stroke-width="0"/><rect width="52.02897" height="55.714222" rx="0" ry="0" transform="matrix(1.249304 0 0 1.166668 94.999993 104.324601)" fill="#d2dbed" stroke-width="0"/><rect width="52.02897" height="55.714222" rx="0" ry="0" transform="matrix(1.249304 0 0 1.166668 94.999985 177.676504)" fill="#d2dbed" stroke-width="0"/><rect width="52.02897" height="55.714222" rx="0" ry="0" transform="matrix(1.249304 0 0 1.166668 166.494891 177.676511)" fill="#d2dbed" stroke-width="0"/><rect width="52.02897" height="55.714222" rx="0" ry="0" transform="matrix(1.249304 0 0 1.166668 166.494891 104.324608)" fill="#d2dbed" stroke-width="0"/><rect width="52.02897" height="55.714222" rx="0" ry="0" transform="matrix(1.249304 0 0 1.166668 166.494902 31.436952)" fill="#d2dbed" stroke-width="0"/></g></svg>
